<?xml version="1.0" encoding="UTF-8"?> <!-- Generator: Adobe Illustrator 19.0.0, SVG Export Plug-In . SVG Version: 6.00 Build 0) --> <svg xmlns="http://www.w3.org/2000/svg" xmlns:xlink="http://www.w3.org/1999/xlink" version="1.1" id="Layer_1" x="0px" y="0px" viewBox="0 0 23.2 30.5" style="enable-background:new 0 0 23.2 30.5;" xml:space="preserve"> <style type="text/css"> .st0{fill:#FDFDFE;} </style> <path class="st0" d="M19.6,23.4c-1.3-0.4-2.8-0.7-4.5-0.9l-0.6,1c1.8,0.2,3.5,0.5,4.8,0.9c1.8,0.6,2.9,1.3,2.9,2 c0,0.7-1.1,1.4-2.9,2c-2,0.7-4.8,1-7.7,1s-5.6-0.4-7.7-1c-1.8-0.6-2.9-1.3-2.9-2c0-0.7,1.1-1.4,2.9-2c1.4-0.4,3-0.7,4.8-0.9l-0.6-1 c-1.7,0.2-3.2,0.5-4.5,0.9c-3,1-3.6,2.2-3.6,3c0,0.8,0.6,2.1,3.6,3c2.1,0.7,5,1.1,8,1.1c3,0,5.9-0.4,8-1.1c3-1,3.6-2.2,3.6-3 C23.2,25.6,22.6,24.4,19.6,23.4"></path> <path class="st0" d="M17,16.2l-5.4,9.1l-5.4-9.1c-0.8-0.5-1.6-1.1-2.3-1.8l7.6,13l7.7-13C18.6,15.1,17.8,15.7,17,16.2"></path> <path class="st0" d="M6.8,11.5c-0.2-0.2-0.5-0.1-0.7,0.1C6,11.8,6,12.1,6.2,12.2l1.1,0.9c0.1,0.1,0.2,0.1,0.3,0.1 c0.1,0,0.3-0.1,0.4-0.2c0.2-0.2,0.1-0.5-0.1-0.7L6.8,11.5z"></path> <path class="st0" d="M7.2,9.9C7.1,9.6,6.9,9.5,6.6,9.5L5.2,9.9C5,10,4.8,10.3,4.9,10.5c0.1,0.2,0.3,0.3,0.5,0.3c0,0,0.1,0,0.1,0 l1.4-0.4C7.1,10.4,7.3,10.1,7.2,9.9"></path> <path class="st0" d="M15.2,12.1c-0.1-0.2-0.4-0.4-0.6-0.3c-0.2,0.1-0.4,0.4-0.3,0.6l0.6,1.3c0.1,0.2,0.3,0.3,0.4,0.3 c0.1,0,0.1,0,0.2,0c0.2-0.1,0.4-0.4,0.3-0.6L15.2,12.1z"></path> <path class="st0" d="M18.7,7.2c-0.3,0-0.5,0.2-0.5,0.4L18,9.6c0,0.3,0.2,0.5,0.4,0.5c0,0,0,0,0,0c0.2,0,0.5-0.2,0.5-0.4l0.2-1.9 C19.2,7.5,19,7.3,18.7,7.2"></path> <path class="st0" d="M13,14.3c-0.2-0.1-0.5-0.1-0.7,0.2l-0.7,1.2c-0.1,0.2-0.1,0.5,0.2,0.7c0.1,0,0.2,0.1,0.2,0.1 c0.2,0,0.3-0.1,0.4-0.2l0.7-1.2C13.3,14.8,13.2,14.5,13,14.3"></path> <path class="st0" d="M16.8,11c-0.2-0.2-0.5-0.1-0.7,0.1c-0.2,0.2-0.1,0.5,0.1,0.7l1.1,0.9c0.1,0.1,0.2,0.1,0.3,0.1 c0.1,0,0.3-0.1,0.4-0.2c0.2-0.2,0.1-0.5-0.1-0.7L16.8,11z"></path> <path class="st0" d="M8.3,6.4c0.1,0,0.1,0,0.2,0c0.2,0,0.4-0.1,0.4-0.3l0.6-1.5c0.1-0.2,0-0.5-0.3-0.6C9,3.9,8.8,4,8.6,4.3L8,5.8 C7.9,6,8,6.3,8.3,6.4"></path> <path class="st0" d="M6.3,7.9C6.4,8,6.6,8.1,6.7,8.1c0.1,0,0.2,0,0.2-0.1c0.2-0.1,0.3-0.4,0.2-0.7L6.3,5.9C6.2,5.6,5.9,5.6,5.6,5.7 C5.4,5.8,5.3,6.1,5.5,6.3L6.3,7.9z"></path> <path class="st0" d="M12,4.7c0.1,0.2,0.2,0.2,0.4,0.2c0.1,0,0.2,0,0.2-0.1c0.2-0.1,0.3-0.4,0.2-0.7L12.2,3c-0.1-0.2-0.4-0.3-0.7-0.2 c-0.2,0.1-0.3,0.4-0.2,0.7L12,4.7z"></path> <path class="st0" d="M14.5,4l1.3,0.6c0.1,0,0.1,0.1,0.2,0.1c0.2,0,0.3-0.1,0.4-0.3c0.1-0.2,0-0.5-0.2-0.6l-1.3-0.6 c-0.2-0.1-0.5,0-0.6,0.2S14.3,3.9,14.5,4"></path> <path class="st0" d="M16.8,8.9c-0.1-0.2-0.4-0.3-0.7-0.2l-0.8,0.5c0-0.3-0.1-0.6-0.2-0.9c0.1-0.1,0.1-0.2,0.1-0.3l0.1-1.8 c0-0.3-0.2-0.5-0.4-0.5c-0.3,0-0.5,0.2-0.5,0.4L14.5,7c-0.7-0.8-1.7-1.3-2.9-1.3c0,0-0.1,0-0.1,0l-0.2-0.7c-0.1-0.3-0.3-0.4-0.6-0.4 c-0.3,0.1-0.4,0.3-0.4,0.6l0.1,0.6C9,6.3,7.9,7.7,7.9,9.4c0,0.4,0.1,0.8,0.2,1.1c0,0.1,0,0.1,0.1,0.2c0.2,0.6,0.6,1.1,1,1.4 c0,0.2,0,0.4,0.2,0.5c0.1,0,0.2,0.1,0.2,0.1c0.1,0,0.2,0,0.2-0.1c0.5,0.3,1,0.4,1.6,0.5c0,0-0.1,0-0.1,0.1l-1.1,0.9 c-0.2,0.2-0.2,0.5-0.1,0.7c0.1,0.1,0.2,0.2,0.4,0.2c0.1,0,0.2,0,0.3-0.1l1.1-0.9c0.2-0.2,0.2-0.5,0.1-0.7c0-0.1-0.1-0.1-0.1-0.1 c1.7-0.1,3.1-1.3,3.5-2.9c0.1,0,0.1,0,0.2-0.1l1.2-0.7C16.9,9.4,16.9,9.1,16.8,8.9 M11.6,11.8c-1.3,0-2.4-1.1-2.4-2.4 c0-1.3,1.1-2.4,2.4-2.4C12.9,7,14,8.1,14,9.4C14,10.7,12.9,11.8,11.6,11.8"></path> <path class="st0" d="M11.6,0C6.4,0,2.2,4.2,2.2,9.4c0,5.2,4.2,9.4,9.4,9.4c5.2,0,9.4-4.2,9.4-9.4C21,4.2,16.8,0,11.6,0 M18.5,13.5 c-0.2,0.4-0.4,0.7-0.7,1c0-0.1,0-0.2-0.1-0.3c-0.2-0.2-0.5-0.2-0.7-0.1l-1.1,0.9c-0.2,0.2-0.2,0.5-0.1,0.7c0.1,0.1,0.2,0.2,0.4,0.2 c0,0,0,0,0,0c-0.3,0.2-0.7,0.5-1.1,0.6l-1.1-0.9c-0.2-0.2-0.5-0.1-0.7,0.1c-0.2,0.2-0.1,0.5,0.1,0.7l0.7,0.6 c-0.2,0.1-0.5,0.1-0.7,0.2C13.4,17.1,13.2,17,13,17c-0.2,0-0.3,0.2-0.4,0.4c-0.3,0-0.7,0.1-1,0.1c-0.4,0-0.8,0-1.1-0.1l0.3-0.8 c0.1-0.2,0-0.5-0.3-0.6c-0.2-0.1-0.5,0-0.6,0.3l-0.3,0.9c-0.4-0.1-0.8-0.2-1.1-0.4c0.2-0.1,0.3-0.4,0.2-0.6l-0.5-1.3 c-0.1-0.2-0.4-0.4-0.6-0.3c-0.2,0.1-0.4,0.4-0.3,0.6l0.5,1.3c-0.5-0.3-0.9-0.5-1.3-0.9l0.1-0.8c0-0.3-0.1-0.5-0.4-0.6 c-0.3,0-0.5,0.1-0.6,0.4l0,0.2C5.3,14.4,5,14,4.7,13.5c0-0.1,0-0.2,0-0.3l-0.6-1.7c-0.1-0.2-0.2-0.3-0.3-0.3 C3.7,10.6,3.6,10,3.6,9.4v0l0.8,0.2c0,0,0.1,0,0.1,0c0.2,0,0.4-0.1,0.5-0.4C5.1,9,4.9,8.8,4.7,8.7l-1-0.3c0.1-0.7,0.2-1.3,0.5-1.9 c0.1,0,0.2-0.1,0.2-0.2l0.5-1C4.9,5.2,5,5.1,4.9,5c0.4-0.6,0.8-1.1,1.3-1.5L6.1,3.8C6,4.1,6.1,4.4,6.4,4.5c0.1,0,0.1,0,0.2,0 c0.2,0,0.4-0.1,0.4-0.3l0.6-1.6c0,0,0-0.1,0-0.1C8,2.3,8.4,2.1,8.7,1.9c-0.1,0.2-0.1,0.4,0,0.6C8.9,2.6,9,2.7,9.1,2.7 c0.1,0,0.2,0,0.3-0.1l1.1-0.9c0.1-0.1,0.1-0.1,0.1-0.2c0.3,0,0.6-0.1,0.9-0.1c0.6,0,1.3,0.1,1.8,0.2l-0.3,0.3 c-0.2,0.2-0.2,0.5-0.1,0.7c0.1,0.1,0.2,0.2,0.4,0.2c0.1,0,0.2,0,0.3-0.1L14.6,2c1.4,0.6,2.7,1.5,3.6,2.8c-0.2,0-0.3,0.1-0.4,0.2 l-0.8,1.2c-0.1,0.2-0.1,0.5,0.1,0.7c0.1,0.1,0.2,0.1,0.3,0.1c0.2,0,0.3-0.1,0.4-0.2l0.8-1.2c0,0,0-0.1,0.1-0.1 c0.7,1.2,1.1,2.6,1.1,4c0,1.3-0.3,2.6-0.9,3.7C18.6,13.2,18.5,13.3,18.5,13.5"></path> </svg> 